<svg id="visual" viewBox="0 0 900 600" width="900" height="600" xmlns="http://www.w3.org/2000/svg" xmlns:xlink="http://www.w3.org/1999/xlink" version="1.1"><g stroke-width="1" stroke-linejoin="bevel"><path d="M449 266L524.5 310L454 231Z" fill="#735980" stroke="#735980"></path><path d="M524.5 310L556.5 167L454 231Z" fill="#ac78ab" stroke="#ac78ab"></path><path d="M419 393L541.5 384L524.5 310Z" fill="#352f45" stroke="#352f45"></path><path d="M524.5 310L696 173L556.5 167Z" fill="#433953" stroke="#433953"></path><path d="M302.5 283L419 393L449 266Z" fill="#ac78ab" stroke="#ac78ab"></path><path d="M449 266L419 393L524.5 310Z" fill="#282536" stroke="#282536"></path><path d="M556.5 167L526.5 91L454 231Z" fill="#433953" stroke="#433953"></path><path d="M425 87L349.5 194L454 231Z" fill="#c183b8" stroke="#c183b8"></path><path d="M454 231L349.5 194L449 266Z" fill="#85638e" stroke="#85638e"></path><path d="M526.5 91L425 87L454 231Z" fill="#c183b8" stroke="#c183b8"></path><path d="M349.5 194L302.5 283L449 266Z" fill="#c183b8" stroke="#c183b8"></path><path d="M708 339L696 173L524.5 310Z" fill="#524462" stroke="#524462"></path><path d="M556.5 167L646 64L526.5 91Z" fill="#85638e" stroke="#85638e"></path><path d="M425 87L367.5 95L349.5 194Z" fill="#1c1b28" stroke="#1c1b28"></path><path d="M198 177L243 314L302.5 283Z" fill="#735980" stroke="#735980"></path><path d="M541.5 384L708 339L524.5 310Z" fill="#c183b8" stroke="#c183b8"></path><path d="M696 173L646 64L556.5 167Z" fill="#624e71" stroke="#624e71"></path><path d="M526.5 91L444 0L425 87Z" fill="#433953" stroke="#433953"></path><path d="M302.5 283L322.5 409L419 393Z" fill="#352f45" stroke="#352f45"></path><path d="M646 493L702 437L541.5 384Z" fill="#ac78ab" stroke="#ac78ab"></path><path d="M646 64L557.5 0L526.5 91Z" fill="#735980" stroke="#735980"></path><path d="M425 87L444 0L367.5 95Z" fill="#1c1b28" stroke="#1c1b28"></path><path d="M557.5 0L444 0L526.5 91Z" fill="#735980" stroke="#735980"></path><path d="M541.5 384L702 437L708 339Z" fill="#624e71" stroke="#624e71"></path><path d="M646 493L541.5 384L598.5 533Z" fill="#85638e" stroke="#85638e"></path><path d="M302.5 283L237 363L322.5 409Z" fill="#1c1b28" stroke="#1c1b28"></path><path d="M198 177L302.5 283L349.5 194Z" fill="#624e71" stroke="#624e71"></path><path d="M461 539L541.5 384L419 393Z" fill="#1c1b28" stroke="#1c1b28"></path><path d="M787.5 521L755.5 393L702 437Z" fill="#433953" stroke="#433953"></path><path d="M702 437L755.5 393L708 339Z" fill="#352f45" stroke="#352f45"></path><path d="M814.5 269L795.5 166L696 173Z" fill="#352f45" stroke="#352f45"></path><path d="M336.5 532L461 539L419 393Z" fill="#352f45" stroke="#352f45"></path><path d="M243 314L237 363L302.5 283Z" fill="#1c1b28" stroke="#1c1b28"></path><path d="M322.5 409L336.5 532L419 393Z" fill="#352f45" stroke="#352f45"></path><path d="M461 539L598.5 533L541.5 384Z" fill="#433953" stroke="#433953"></path><path d="M814.5 269L696 173L708 339Z" fill="#1c1b28" stroke="#1c1b28"></path><path d="M696 173L777.5 99L646 64Z" fill="#352f45" stroke="#352f45"></path><path d="M646 64L689 0L557.5 0Z" fill="#735980" stroke="#735980"></path><path d="M755.5 393L814.5 269L708 339Z" fill="#624e71" stroke="#624e71"></path><path d="M444 0L327.5 0L367.5 95Z" fill="#85638e" stroke="#85638e"></path><path d="M210 85L198 177L349.5 194Z" fill="#735980" stroke="#735980"></path><path d="M795.5 166L777.5 99L696 173Z" fill="#282536" stroke="#282536"></path><path d="M777.5 99L689 0L646 64Z" fill="#524462" stroke="#524462"></path><path d="M210 85L349.5 194L367.5 95Z" fill="#282536" stroke="#282536"></path><path d="M243 314L114.5 292L237 363Z" fill="#735980" stroke="#735980"></path><path d="M186 500L336.5 532L322.5 409Z" fill="#735980" stroke="#735980"></path><path d="M327.5 0L210 85L367.5 95Z" fill="#624e71" stroke="#624e71"></path><path d="M461 539L560.5 600L598.5 533Z" fill="#624e71" stroke="#624e71"></path><path d="M598.5 533L678 600L646 493Z" fill="#524462" stroke="#524462"></path><path d="M646 493L787.5 521L702 437Z" fill="#433953" stroke="#433953"></path><path d="M427 600L560.5 600L461 539Z" fill="#996e9d" stroke="#996e9d"></path><path d="M336.5 532L427 600L461 539Z" fill="#624e71" stroke="#624e71"></path><path d="M777.5 99L749.5 0L689 0Z" fill="#624e71" stroke="#624e71"></path><path d="M327.5 0L251 0L210 85Z" fill="#ac78ab" stroke="#ac78ab"></path><path d="M235 600L360.5 600L336.5 532Z" fill="#282536" stroke="#282536"></path><path d="M336.5 532L360.5 600L427 600Z" fill="#524462" stroke="#524462"></path><path d="M135.5 138L198 177L210 85Z" fill="#85638e" stroke="#85638e"></path><path d="M135.5 138L128.5 211L198 177Z" fill="#352f45" stroke="#352f45"></path><path d="M198 177L128.5 211L243 314Z" fill="#996e9d" stroke="#996e9d"></path><path d="M237 363L186 500L322.5 409Z" fill="#433953" stroke="#433953"></path><path d="M560.5 600L678 600L598.5 533Z" fill="#624e71" stroke="#624e71"></path><path d="M900 368L900 321L814.5 269Z" fill="#85638e" stroke="#85638e"></path><path d="M678 600L787.5 521L646 493Z" fill="#ac78ab" stroke="#ac78ab"></path><path d="M92.5 0L135.5 138L210 85Z" fill="#85638e" stroke="#85638e"></path><path d="M0 292L114.5 292L128.5 211Z" fill="#85638e" stroke="#85638e"></path><path d="M128.5 211L114.5 292L243 314Z" fill="#433953" stroke="#433953"></path><path d="M114.5 292L130.5 393L237 363Z" fill="#996e9d" stroke="#996e9d"></path><path d="M900 368L814.5 269L755.5 393Z" fill="#735980" stroke="#735980"></path><path d="M814.5 269L900 184L795.5 166Z" fill="#433953" stroke="#433953"></path><path d="M795.5 166L900 73L777.5 99Z" fill="#ac78ab" stroke="#ac78ab"></path><path d="M777.5 99L900 0L749.5 0Z" fill="#85638e" stroke="#85638e"></path><path d="M900 321L900 184L814.5 269Z" fill="#ac78ab" stroke="#ac78ab"></path><path d="M130.5 393L186 500L237 363Z" fill="#624e71" stroke="#624e71"></path><path d="M900 482L900 368L755.5 393Z" fill="#352f45" stroke="#352f45"></path><path d="M900 184L900 73L795.5 166Z" fill="#ac78ab" stroke="#ac78ab"></path><path d="M186 500L235 600L336.5 532Z" fill="#85638e" stroke="#85638e"></path><path d="M103.5 600L235 600L186 500Z" fill="#996e9d" stroke="#996e9d"></path><path d="M678 600L790.5 600L787.5 521Z" fill="#1c1b28" stroke="#1c1b28"></path><path d="M787.5 521L900 482L755.5 393Z" fill="#1c1b28" stroke="#1c1b28"></path><path d="M900 600L900 482L787.5 521Z" fill="#996e9d" stroke="#996e9d"></path><path d="M900 73L900 0L777.5 99Z" fill="#524462" stroke="#524462"></path><path d="M251 0L92.5 0L210 85Z" fill="#524462" stroke="#524462"></path><path d="M0 174L0 292L128.5 211Z" fill="#524462" stroke="#524462"></path><path d="M0 488L81.5 533L130.5 393Z" fill="#524462" stroke="#524462"></path><path d="M130.5 393L81.5 533L186 500Z" fill="#c183b8" stroke="#c183b8"></path><path d="M0 401L130.5 393L114.5 292Z" fill="#433953" stroke="#433953"></path><path d="M0 174L128.5 211L135.5 138Z" fill="#524462" stroke="#524462"></path><path d="M0 120L0 174L135.5 138Z" fill="#ac78ab" stroke="#ac78ab"></path><path d="M92.5 0L0 120L135.5 138Z" fill="#735980" stroke="#735980"></path><path d="M790.5 600L900 600L787.5 521Z" fill="#c183b8" stroke="#c183b8"></path><path d="M0 292L0 401L114.5 292Z" fill="#352f45" stroke="#352f45"></path><path d="M0 600L103.5 600L81.5 533Z" fill="#c183b8" stroke="#c183b8"></path><path d="M81.5 533L103.5 600L186 500Z" fill="#282536" stroke="#282536"></path><path d="M0 401L0 488L130.5 393Z" fill="#996e9d" stroke="#996e9d"></path><path d="M92.5 0L0 0L0 120Z" fill="#433953" stroke="#433953"></path><path d="M0 488L0 600L81.5 533Z" fill="#c183b8" stroke="#c183b8"></path></g></svg>