<svg id="visual" viewBox="0 0 900 600" width="900" height="600" xmlns="http://www.w3.org/2000/svg" xmlns:xlink="http://www.w3.org/1999/xlink" version="1.1"><rect x="0" y="0" width="900" height="600" fill="#1c1b28"></rect><path d="M0 510L21.5 502C43 494 86 478 128.8 459.5C171.7 441 214.3 420 257.2 425.2C300 430.3 343 461.7 385.8 478.3C428.7 495 471.3 497 514.2 485.2C557 473.3 600 447.7 642.8 443.2C685.7 438.7 728.3 455.3 771.2 452.8C814 450.3 857 428.7 878.5 417.8L900 407L900 601L878.5 601C857 601 814 601 771.2 601C728.3 601 685.7 601 642.8 601C600 601 557 601 514.2 601C471.3 601 428.7 601 385.8 601C343 601 300 601 257.2 601C214.3 601 171.7 601 128.8 601C86 601 43 601 21.5 601L0 601Z" fill="#c183b8" stroke-linecap="round" stroke-linejoin="miter"></path></svg>